<?xml version="1.0" encoding="utf-8"?>
<!-- Generator: Adobe Illustrator 25.0.1, SVG Export Plug-In . SVG Version: 6.00 Build 0)  -->
<svg version="1.1" id="圖層_1" xmlns="http://www.w3.org/2000/svg" xmlns:xlink="http://www.w3.org/1999/xlink" x="0px" y="0px"
	 viewBox="0 0 410 70" style="enable-background:new 0 0 410 70;" xml:space="preserve">
<style type="text/css">
	.st0{fill:#002466;}
	.st1{fill:#FFD900;}
</style>
<g>
	<g>
		<path class="st0" d="M53.8,69.3c14.7,0,27.8-15.1,27.8-34.2S68.3,1,53.8,1C39,1,26,16.1,26,35.2C26,54.4,39,69.3,53.8,69.3z"/>
		<path class="st1" d="M53.3,8.4h1.9c0,0,0.2-0.2,0.2-0.4c0-1.4,1-3.1,1-3.3c0-0.8-1.2-1-2.3-1c-0.8,0-2.3,0.2-2.3,1
			c0,0,0.8,1.9,1,3.3C53.1,8.4,53.3,8.4,53.3,8.4z"/>
		<rect x="53.1" y="9.1" class="st1" width="2.3" height="2.1"/>
		<path class="st1" d="M53.5,19.4c0.2,0,0.6,0,1,0c0.4,0,0.6,0,1,0c0-4.1,0-7.7,0-7.7h-2.3C53.3,11.8,53.3,15.1,53.5,19.4z"/>
		<g>
			<path class="st1" d="M53.5,41.2c0,0.6-0.2,1-0.2,1.7c0,0,0.2,0,0.6,0c0.4,0,0.4,0,0.6,0c0-0.6,0.2-1,0.2-1.7
				c0.2-2.5,0.2-4.3,0.4-6.2c0-1.4,0.2-5.2,0.2-9.5c-0.2,0-0.6,0-1,0c-0.2,0-0.6,0-0.8,0c0,3.5,0.2,6.8,0,9.5
				C53.5,37,53.8,39.1,53.5,41.2z"/>
			<path class="st1" d="M53.3,49.2c-0.2,0-0.4-0.2-0.4,0c-0.4,2.1-0.6,3.7-1.4,5.4c-2.3,5.8-8.5,8.3-8.5,8.3l3.3,3.1
				c0.6-0.6,2.1-2.9,3.1-5c1.2-2.5,2.5-5.6,3.3-8.3c0.4-1.2,0.6-2.5,0.8-3.3C53.8,49.2,53.5,49.2,53.3,49.2z"/>
		</g>
		<path class="st1" d="M73.8,33.5h-2.1c-1-0.2-1.2-1.7-1.2-1.7v-2.1c0,0-0.2-7-0.2-8.5c0-1,0.6-1,0.6-1.9S70.3,18,69.7,18
			c-0.8,0-1.2,0.6-1.2,1.2c0,1,0.8,1,0.8,1.9c0,1.4-0.2,8.5-0.2,8.5v2.1c0,0,0,1.7-1,1.7H55.8V35H68c1,0.2,1,1.9,1,1.9v2.1
			c0,0,0.2,7,0.2,8.5c0,1-0.8,1-0.8,1.9c0,0.6,0.4,1.2,1.2,1.2s1.2-0.6,1.2-1.4c0-0.8-0.6-0.8-0.6-1.9c0-1.4,0.2-8.5,0.2-8.5v-2.1
			c0,0,0-1.7,1.2-1.7l0,0h1.9c0.4,0,0.6-0.2,0.6-0.6v-0.6C74.5,33.7,74.1,33.5,73.8,33.5z"/>
		<path class="st1" d="M45.1,34.3c0,0.4,0,0.6,0,0.8h8.1v-1.7h-8.1C45.1,33.7,45.1,34.1,45.1,34.3z"/>
		<path class="st1" d="M38.4,39.1V37c0,0,0-1,0.6-1.4c0-0.2-0.2-0.8,0-1.2c0-0.4,0-1,0-1.2c-0.6-0.4-0.6-1.2-0.6-1.2v-2.1
			c0,0-0.2-7-0.2-8.5c0-1,0.8-1,0.8-1.9c0-0.6-0.4-1.2-1.2-1.2c-0.8,0-1.4,0.6-1.2,1.4c0,0.8,0.6,0.8,0.6,1.9c0,1.4-0.2,8.5-0.2,8.5
			v2.1c0,0,0,1.7-1.2,1.7h-2.1c-0.4,0-0.6,0.2-0.6,0.6V35c0,0.4,0.2,0.6,0.6,0.6h1.9l0,0c1.2,0,1.2,1.7,1.2,1.7v2.1
			c0,0,0.2,7,0.2,8.5c0,1-0.6,1-0.6,1.9c0,0.8,0.6,1.4,1.2,1.4c0.8,0,1.2-0.6,1.2-1.2c0-1-0.8-1-0.8-1.9
			C38.2,45.9,38.4,39.1,38.4,39.1z"/>
		<path class="st1" d="M35.3,35.8h-1.2l0,0c-0.2,1.7-0.8,3.1-1.7,3.1c-1,0-1.7-2.1-1.7-4.6s0.8-4.6,1.7-4.6c0.8,0,1.4,1.2,1.7,2.9
			v0.2h1.2v-0.2c-0.4-2.5-1.4-4.3-2.7-4.3c-1.4,0-2.9,2.7-2.9,6s1.2,6,2.9,6C33.9,40.3,34.9,38.5,35.3,35.8L35.3,35.8z"/>
		<path class="st1" d="M72.2,35.8h1.2l0,0c0.2,1.7,0.8,3.1,1.7,3.1c1,0,1.7-2.1,1.7-4.6s-0.8-4.6-1.7-4.6c-0.8,0-1.4,1.2-1.7,2.9
			v0.2h-1.2v-0.2c0.4-2.5,1.4-4.3,2.7-4.3c1.4,0,2.9,2.7,2.9,6s-1.2,6-2.9,6C73.6,40.3,72.4,38.5,72.2,35.8L72.2,35.8z"/>
		<g>
			<path class="st1" d="M43.4,34.3c0.2,3.7,1.7,5.8,3.7,7.5c4.1,3.5,9.7,3.1,12.2,2.1c1.2-0.4,1.4-0.4,2.9-1.2
				c1.7-0.8,2.7-1.4,3.7-1.4c0.8,0,1.2,0.2,1.2,0.8c0.2,0.4,0,1.2-0.4,1.9c0,0,0.6-0.6,1.2-1.2s0.6-1.4,0.4-1.9
				c-0.6-0.8-2.1-0.6-2.9-0.6s-1.4,0.2-2.1,0.6c-2.3,1-2.1,1.2-3.9,1.9c-2.5,0.8-4.3,0.8-7.2,0.2c-1.9-0.4-3.3-1.2-4.3-2.1
				c-1.9-1.4-3.3-3.5-3.3-6.8"/>
			<path class="st1" d="M39.5,34.3c0,3.3,1.2,5.8,1.2,5.8c0.8,1.4,1.7,3.5,5.2,5.8c2.1,1.4,4.1,2.1,6.4,2.5c2.7,0.4,4.3,0.2,6.8-0.4
				c1.4-0.4,3.9-1.2,5.6-2.7c1.7-1.4,2.1-2.3,1.9-2.9c0-0.4-0.4-0.6-0.8-0.8c-0.6,0-1.4,0.2-1.9,0.4c-0.4,0.2-2.9,1.9-4.6,2.3
				c-1.4,0.4-2.3,0.6-4.6,0.6c-2.5,0-5.6-0.8-7.7-2.3c-1.7-1.2-2.7-2.3-3.5-3.9c-0.4-1-1-1.9-1.2-4.8 M43.2,42l-0.8-1.4l0.8-0.6
				l0.8,1.4L43.2,42z M46.5,44.7l-1.2-1l0.6-0.8l1.2,1L46.5,44.7z M50.2,46.6l-1.7-0.6l0.4-1l1.7,0.6L50.2,46.6z M54.6,47.4
				l-1.7-0.2v-1l1.7,0.2V47.4z M57.1,47.2v-1l1.7-0.2l0.2,1L57.1,47.2z M61.2,46.1l-0.4-0.8l1.4-0.6l0.4,0.8L61.2,46.1z"/>
		</g>
		<g>
			<path class="st1" d="M43.4,34.3c0.2-3.7,1.7-5.8,3.7-7.5c4.1-3.5,9.7-3.1,12.2-2.1c1.2,0.4,1.4,0.4,2.9,1.2
				c1.7,0.8,2.7,1.4,3.7,1.4c0.8,0,1.2-0.2,1.2-0.8c0.2-0.4,0-1.2-0.4-1.9c0,0,0.6,0.6,1.2,1.2c0.6,0.6,0.6,1.4,0.4,1.9
				c-0.6,0.8-2.1,0.6-2.9,0.6s-1.4-0.4-2.1-0.6c-2.3-1-2.1-1.2-3.9-1.9c-2.5-0.8-4.3-0.8-7.2-0.2c-1.9,0.4-3.3,1.2-4.3,2.1
				c-1.9,1.4-3.3,3.5-3.3,6.8"/>
			<path class="st1" d="M42.8,34.3c0.2-2.7,0.6-3.7,1.2-4.8c0.8-1.4,1.9-2.5,3.5-3.9c1.9-1.4,5.2-2.3,7.7-2.3c2.3,0,3.1,0.2,4.6,0.6
				c1.7,0.4,4.1,2.1,4.6,2.3c0.4,0.2,1.2,0.4,1.9,0.4c0.4,0,0.8-0.4,0.8-0.8c0-0.6-0.2-1.4-1.9-2.9c-1.7-1.4-3.9-2.3-5.6-2.7
				c-2.5-0.6-4.3-0.8-6.8-0.4c-2.5,0.4-4.6,1-6.4,2.5c-3.5,2.5-4.6,4.6-5.2,5.8c0,0-1.2,2.5-1.2,5.8 M44,27.3l-0.8,1.4l-0.8-0.6
				l0.8-1.4L44,27.3z M47.1,24.8l-1.4,1L45.1,25l1.2-1L47.1,24.8z M50.6,23.1L49,23.8l-0.4-1l1.7-0.6L50.6,23.1z M54.6,22.3
				l-1.7,0.2v-1l1.7-0.2V22.3z M58.7,21.9l-0.2,1l-1.7-0.2l0.2-1L58.7,21.9z M62.7,23.4l-0.4,0.8l-1.4-0.6l0.4-0.8L62.7,23.4z"/>
		</g>
	</g>
	<g>
		<path d="M110.3,35.6l1.7,1l0.2,0.2c0,0,0,0.2-0.2,0.4s-0.2,0.2-0.2,0.4v6.4c0,0.2-0.2,0.4-0.8,0.6l-0.8,0.2l0,0
			c-0.2,0-0.2,0-0.2-0.2V43h-7.2v1c0,0.2-0.2,0.2-0.6,0.4l-1,0.4l0,0h-0.2l-0.2-0.2v-2.3v-6.2c-2.1,1.4-4.1,2.5-5.8,3.1l-0.2-0.2
			c3.7-2.5,6.2-5,7.5-7.2h-5c-0.4,0-1,0-1.9,0.2l-0.6-0.8h10.4v-2.1h-1l-3.5,0.2H96v-0.4l3.9-0.6c3.9-0.4,7.7-1.4,11.6-2.5
			c1,1.4,1.7,2.1,1.7,2.3c0,0.2,0,0.2-0.2,0.2c-0.2,0-0.4,0-0.6-0.2c-0.2-0.2-0.4-0.2-0.6-0.2l-3.9,0.8l-1,0.2v2.3h5.8l1-1.2h0.2
			c0.2,0,0.6,0.2,1.2,0.8c0.8,0.4,1.2,0.8,1.2,1c0,0.2,0,0.2-0.2,0.2h-7.9c0.8,1,1.9,1.9,3.5,2.5c1.7,0.6,2.7,1.2,3.7,1.2l1.9,0.4
			v0.4c-1.4,0.2-2.3,0.4-2.7,1.2c-3.5-1.4-6-3.5-7-5.8H107v1.9v1.7c0,0.2-0.4,0.4-1,0.6l-0.8,0.2l0,0c-0.2,0-0.2,0-0.2-0.2l0.2-2.3
			v-1.9h-0.6c-1,1.4-2.3,2.7-3.5,3.9l1.9,0.6h6.4l0.8-0.6h0.2C110.1,35.6,110.1,35.6,110.3,35.6z M102.2,39.3h7.2V37h-7.2V39.3z
			 M102.2,42.6h7.2v-2.7h-7.2V42.6z"/>
		<path d="M121.5,31c2.9,0.8,4.3,1.7,4.3,2.5c0,0.2-0.2,0.6-0.4,0.8c-0.2,0.4-0.4,0.4-0.6,0.4c-0.2,0-0.4-0.2-0.8-0.6
			c-0.8-1.2-1.7-2.1-2.7-2.9L121.5,31z M138.3,33.3h1.9l1-1.2h0.2c0,0,0.4,0.2,1,0.8c0.6,0.6,1,0.8,1,0.8c0,0.2,0,0.2-0.2,0.2h-5.8
			c1.4,1.9,3.7,3.1,6.6,3.7v0.4c-1,0-1.9,0.4-2.5,1c-0.6-0.2-1.7-0.8-2.7-1.9c-0.2,0-0.2,0-0.2,0.2v1v1.2c0,0.2-0.2,0.2-0.8,0.4
			c-0.6,0.2-0.8,0.2-1,0.2c-0.2,0-0.2,0-0.2-0.2v-0.6h-3.9c0,1.2,0,2.1,0,2.5c0,0.2,0.2,0.4,0.6,0.6c0.4,0,1.2,0.2,2.9,0.2
			s2.5,0,2.9-0.2c0.2,0,0.6-0.2,0.8-0.6s0.4-1.2,0.8-2.7h0.4c0,1.4,0.2,2.3,0.4,2.7c0.2,0.2,0.6,0.6,1,0.8c-0.6,0.8-1.2,1.2-2.3,1.4
			c-0.8,0.2-2.5,0.2-4.6,0.2c-1.7,0-2.9,0-3.5-0.2s-1-0.2-1.2-0.6c-0.2-0.2-0.4-0.6-0.4-1.2v-5l0,0c-1,0.8-2.1,1.4-2.9,2.1
			c-0.8,0.2-1.2,0.4-1.4,0.4c0,0,0,0-0.2,0h-0.2v0.2c0,0.4,0,1.2,0.2,2.1c0.2,0.8,0.2,1.4,0.2,1.7c0,0.4-0.2,0.8-0.8,0.8
			c-0.4,0-0.8-0.2-1.2-0.4c-0.4-0.4-0.6-0.6-0.6-1.2c0,0,0-0.4,0.2-0.8c0.2-0.4,0.2-1,0.2-1.7c0-0.4,0-0.6,0-0.6s-0.2-0.2-0.4-0.4
			c-0.2-0.2-0.8-0.4-1.7-0.6v-0.4h1c0.8,0,1.4-0.2,1.7-0.4l1-1.7l1.9-3.3l1-2.1l0.4,0.2l-0.8,2.3h3.7v-2.9h-1.4
			c-0.2,0-0.6,0-1.4,0.2c0,0-0.2-0.2-0.2-0.4c-0.2-0.2-0.2-0.4-0.2-0.4h3.3v-2.5V26l0,0l2.3,0.6c0.2,0,0.2,0.2,0.2,0.2
			s0,0.2-0.4,0.4c-0.2,0.2-0.4,0.4-0.4,0.4V30h2.9v-2.1v-1.7c1.9,0.4,2.7,0.6,2.7,0.8c0,0-0.2,0.2-0.4,0.4c-0.2,0.2-0.4,0.4-0.4,0.4
			v2.3h1.4l1-1.2l0.2-0.2c0,0,0.4,0.2,1.2,0.8c0.6,0.6,1,0.8,1,1s0,0.2-0.2,0.2h-4.8C138.3,30.8,138.3,33.3,138.3,33.3z M123.4,26.7
			l0.2-0.4c3.1,0.8,4.6,1.9,4.6,2.7c0,0.2-0.2,0.6-0.4,1c-0.2,0.4-0.4,0.6-0.8,0.6c-0.2,0-0.2,0-0.4-0.2c-0.2-0.2-0.4-0.4-0.8-1.2
			C125.4,28.5,124.6,27.7,123.4,26.7z M126,39.7L126,39.7c2.5-1.9,4.1-3.7,5.4-5.8h-3.7l-1.2,3.1c0,0-0.2,0.4-0.2,1
			C126,38.9,126,39.3,126,39.7L126,39.7z M137.6,35.8L137.6,35.8c-0.4-0.8-0.8-1.4-1-1.9h-3.1c-0.2,0.4-0.8,1-1.2,1.9l0.6,0.4h3.7
			l0.6-0.6h0.2C137.4,35.6,137.4,35.6,137.6,35.8z M132.7,38.9h4.1v-2.3h-4.1V38.9z M133.5,33.3h2.9v-2.9h-2.9V33.3z"/>
		<path d="M156.7,41.2l1.7,1.4c0,0,0,0,0,0.2s0,0.2-0.2,0.2h-0.2c-0.2,0-0.2,0-0.2,0l-2.9,0.8c-2.1,0.6-3.9,1-5.8,1.2l-0.2-0.2
			c3.3-1,6-2.1,7.7-3.5h-1v0.4c0,0.2-0.2,0.2-0.8,0.4c-0.6,0.2-1,0.2-1,0.2s-0.2,0-0.2-0.2l0.2-2.3v-3.1c-1.4,0.8-3.1,1.4-5,1.9
			l-0.2-0.2c2.9-1,5.2-2.5,6.8-4.1h-3.5c-0.4,0-1,0-1.7,0.2l-0.4-0.8h6.4v-1h-1.9c-0.2,0-0.6,0-1.4,0.2l-0.6-1.2h3.5v-1h-1.4
			c-0.6,0-1.2,0-1.9,0.2l-0.4-0.4c-0.6,0.4-1,0.6-1.7,0.6c-0.2,0-0.4,0-0.6-0.2c-0.2-0.2-0.4-0.2-0.4-0.4c0-0.2,0.2-0.4,0.6-0.6
			c1.4-0.8,2.1-1.7,2.1-2.5h0.4l0.2,0.8h6c-0.4-0.8-0.8-1.4-1.4-1.9l0.2-0.2c2.5,0.2,3.7,0.6,3.7,1.2c0,0.2-0.2,0.4-0.6,0.8l0,0h6.4
			l1-0.6h0.2c0,0,0.4,0.2,1,0.4c0.6,0.4,1,0.6,1.2,0.8c0,0.2,0,0.2-0.2,0.2c-0.8,0-1.2,0-1.4,0.2c-0.2,0-0.4,0.2-0.8,0.4
			c-0.4,0.2-0.6,0.4-0.6,0.4l-0.2-0.2c0.2-0.6,0.4-1,0.6-1.2H153c0,0.8-0.2,1.2-0.4,1.7h3.5c0-0.2,0-0.6,0-1.4
			c1.9,0.4,2.7,0.6,2.7,0.8c0,0-0.2,0.2-0.4,0.2s-0.4,0.2-0.4,0.2v0.4h3.3v-0.6v-1c1.7,0.4,2.5,0.6,2.5,0.6s0,0.2-0.2,0.2
			c-0.2,0-0.2,0.2-0.2,0.2v0.4h1.7l0.8-0.8c0,0,0,0,0.2,0s0.4,0.2,1,0.6c0.6,0.4,0.8,0.6,0.8,0.6s0,0.2-0.2,0.2h-4.6v0.8h1.9
			l0.8-0.6c0,0,0,0,0.2,0s0.4,0.2,1,0.6c0.6,0.4,0.8,0.6,0.8,0.6s0,0.2-0.2,0.2h-4.3v1h3.7l1-0.8c0,0,0,0,0.2,0c0.2,0,0.4,0.2,1,0.6
			c0.4,0.4,0.8,0.6,1,0.6c0.2,0,0.2,0.2,0.2,0.2v0.2h-6.8c1.4,1.2,3.9,2.1,7.5,2.5V37c-1.4,0-2.3,0.4-2.9,0.8c-1-0.2-1.9-0.6-2.7-1
			v2.3v2.5c0,0.2,0,0.4-0.4,0.4l-0.8,0.2l0,0c2.9,0.2,4.3,1,4.3,2.3c0,0.6-0.2,0.8-0.6,0.8c-0.2,0-0.4,0-0.6-0.2
			c-2.9-1.4-5.2-2.5-6.6-2.7V42h2.7v-0.6h-6.8V41.2z M163.1,36h-7.9v1h7.9V36z M163.1,37.6h-7.9v1h7.9V37.6z M163.1,39.3h-7.9v1.2
			h7.9V39.3z M155.5,35.4L155.5,35.4h7.5l0.4-0.2c-0.4-0.4-0.6-0.6-1-1.2h-4.8C156.3,35,155.7,35.4,155.5,35.4z M157.7,31.6h3.3v-1
			h-3.3V31.6z M157.7,33.3h3.3v-1h-3.3V33.3z"/>
		<path d="M178.2,38.9h0.4c0,0.8,0.2,1.4,0.2,1.9c0,1.4-0.2,2.3-0.8,2.5c-0.4,0.2-1,0.4-1.4,0.4c-0.6,0-1-0.2-1-0.6
			c0-0.2,0.4-0.6,1-1C177.6,41.6,178,40.5,178.2,38.9z M178.9,38.5l0.2-2.5v-7.7v-2.1l2.5,1h11.2L194,26c0,0,0,0,0.2,0
			c0,0,0.4,0.2,1.2,0.8c0.8,0.4,1.2,0.8,1.2,0.8c0,0.2,0,0.2-0.2,0.2h-8.1v2.5h3.3l1-1.2c0,0,0,0,0.2,0c0,0,0.2,0,0.2,0.2l1.9,1.4
			c0,0,0,0,0,0.2v0.2h-6.8v2.5h3.3l1-1c0,0,0,0,0.2,0c0,0,0.4,0.2,1.2,0.8c0.8,0.4,1,0.8,1,0.8c0,0.2,0,0.2-0.2,0.2h-6.6V37h6
			l0.8-0.8h0.2c0,0,0,0,0.2,0c0,0,0.4,0.2,0.8,0.4c0.6,0.2,0.8,0.6,0.8,0.6s-0.2,0.2-0.4,0.4c-0.2,0.2-0.4,0.4-0.4,0.4
			c-0.2,2.1-0.4,3.5-0.6,4.3c-0.2,1-0.6,1.7-1,1.9c-0.4,0.2-1.2,0.6-2.5,0.8c-0.2-0.6-0.4-1-0.8-1.2s-1.2-0.6-2.5-0.8l0.2-0.4
			c1.9,0.2,3.1,0.2,3.9,0.2c0.4,0,0.8-0.4,1-1.4c0.2-0.8,0.4-2.3,0.6-4.1h-12.8v0.6c0,0.2-0.4,0.2-0.8,0.4c-0.6,0.2-1,0.2-1,0.2
			C178.9,38.7,178.9,38.7,178.9,38.5z M180.9,30.4h4.8v-2.5h-4.8V30.4z M180.9,33.7h4.8V31h-4.8V33.7z M180.9,36.6h4.8v-2.5h-4.8
			V36.6z M181.4,38.7c0.6,0.6,1,1,1.4,1.7c0.4,0.6,0.6,1,0.6,1.2c0,0.4-0.2,0.8-0.4,1c-0.2,0.4-0.6,0.4-0.8,0.4
			c-0.4,0-0.6-0.2-0.6-0.4c0-1.9-0.2-3.1-0.6-3.9H181.4z M184.5,38.5l0.4-0.2c1.9,1.2,2.9,2.3,2.9,2.9c0,0.4-0.2,0.6-0.4,0.8
			c-0.2,0.2-0.4,0.4-0.6,0.4c-0.2,0-0.4,0-0.4-0.2C185.7,40.5,185.3,39.3,184.5,38.5z M188.6,37.9c1.2,0.6,2.1,1,2.7,1.4
			c0.6,0.4,0.8,0.8,0.8,1.2c0,0.2-0.2,0.6-0.4,0.8c-0.2,0.2-0.4,0.4-0.6,0.4c-0.2,0-0.2,0-0.4-0.2c-0.8-1.7-1.4-2.9-2.3-3.5
			L188.6,37.9z"/>
		<path d="M217.6,44.7v-1h-8.5c0,0.4,0,0.6-0.2,0.6c0,0-0.4,0.2-0.8,0.4c-0.4,0.2-0.8,0.4-0.8,0.4c-0.2,0-0.2,0-0.2-0.2v-2.1v-3.9
			c0-0.2,0-0.6-0.2-1c-0.4,0.2-0.6,0.2-0.8,0.2c-0.2,0-0.2,0-0.4-0.2c0-1.4,0-2.9,0-4.3c0-0.4,0-0.8,0-1.2l0,0l-3.5,1.4l-0.4-0.4
			l3.9-2.3c0.8-0.4,2.1-1.2,3.3-2.3c1.2-1,2.5-2.1,3.3-3.3c0.4,0.2,1,0.4,1.4,0.6c0.6,0.2,0.8,0.4,0.8,0.6l0,0c0,0-0.2,0.2-0.4,0.2
			c-0.2,0-0.4,0-0.4,0.2c2.5,1.7,6,2.9,10.8,3.7v0.4c-1.2,0.2-2.1,0.8-2.3,1.2c-3.7-1.2-6.6-2.9-8.7-5l-2.3,1.7
			c-0.6,0.4-1.2,1-1.9,1.2l0,0h4.3l1-1h0.2c0,0,0.4,0.2,1,0.8c0.6,0.4,1,0.8,1,0.8c0,0.2,0,0.2-0.2,0.2h-6l-1.2,0.2l-0.4-0.6h-0.2
			c-0.6,0.4-1.2,0.8-2.1,1l1.4,0.6h10.1l0.8-0.6h0.2c0.2,0,0.4,0.2,1,0.4c0.6,0.4,0.8,0.6,0.8,0.6s-0.2,0.2-0.4,0.4
			c-0.2,0.2-0.4,0.2-0.4,0.4c0,0,0,0.4,0,1v2.5c-0.2,0.2-0.4,0.4-0.8,0.4l-0.6,0.2c0.6,0.4,1,0.6,1,0.6c0,0.2-0.2,0.2-0.4,0.4
			c0,0.2,0,0.4,0,0.4s0,0.2,0,0.4v4.1c0,0-0.2,0.2-0.8,0.6c-0.6,0.2-0.8,0.4-1,0.4C217.6,44.9,217.6,44.9,217.6,44.7z M217.4,38.5
			l0.8-0.8c0,0,0,0,0.2,0c0,0,0.2,0,0.4,0V37h-10.8c-0.2,0.2-0.4,0.4-0.6,0.4l1.9,0.8h8.1V38.5z M212.2,33.1h-4.3v3.3h4.3V33.1z
			 M208.7,33.3c1.7,0.6,2.5,1.2,2.5,1.7c0,0.2-0.2,0.4-0.4,0.6c-0.2,0.2-0.4,0.4-0.6,0.4c-0.2,0-0.4-0.2-0.6-0.4
			c-0.4-1-0.8-1.7-1.2-2.1C208.5,33.5,208.7,33.5,208.7,33.3z M209.1,40.5h8.5v-1.7h-8.5V40.5z M209.1,43h8.5v-1.7h-8.5V43z
			 M218.6,33.1h-4.6v3.3h0.6c0.6-1,1.2-2.1,1.7-3.3l0,0c0.2,0,0.8,0.2,1.9,0.8l0,0c0,0.2,0,0.2-0.2,0.2c-0.2,0-0.2,0-0.4,0.2
			c0,0-0.2,0.2-0.4,0.4c-0.2,0.2-0.4,0.4-0.8,0.6c-0.4,0.2-0.6,0.6-1,0.8h3.3L218.6,33.1L218.6,33.1z"/>
		<path d="M242.9,36.4L242.9,36.4l4.3-0.2c-0.2-0.4-0.6-1-1-1.4l0.2-0.2c2.1,1,3.1,2.1,3.1,2.5s-0.2,0.6-0.4,1
			c-0.2,0.2-0.4,0.4-0.8,0.4c-0.4,0-0.6-0.2-0.6-0.6c0-0.4-0.2-0.8-0.2-1l-5.4,1c-0.2,0.2-0.2,0.2-0.4,0.2s-0.4-0.2-0.6-0.8
			l-0.4-0.8c0,0,0.2-0.2,0.8-0.2c0.6-0.2,1.7-1,3.5-2.7l0,0c-1.4,0.2-2.5,0.4-2.9,0.6l-0.8,0.2c-0.2,0.2-0.2,0.2-0.4,0.2
			s-0.2,0-0.2-0.2c0,0-0.2-0.6-0.6-1.4v-0.2c1,0,2.3-1.2,3.7-3.7h-7.2l0,0c0.6,0.2,0.8,0.4,0.8,0.6c0,0,0,0,0,0.2
			c0,0-0.2,0.2-0.4,0.2s-0.4,0.2-0.4,0.2l-0.6,0.4c-1,0.8-1.9,1.4-2.9,2.1l0,0h3.1c0.4-0.4,1-1.2,2.1-2.3c1.4,0.8,2.3,1.2,2.3,1.2
			s-0.2,0.2-0.4,0.2c-0.2,0-0.4,0-0.4,0.2c0,0-0.2,0-0.2,0.2c-0.2,0.2-0.4,0.2-0.8,0.6c-1.9,1.2-3.5,2.5-5.2,3.3l0,0h1l3.7-0.2
			c0-0.6-0.4-1.2-0.8-1.9l0.4-0.2c1.9,0.8,2.7,1.4,2.7,2.3c0,0.4-0.2,0.8-0.6,1s-0.6,0.4-0.8,0.4c-0.4,0-0.6-0.4-0.6-1
			c-0.6,0-2.5,0.6-5.6,1.2c-0.2,0.2-0.2,0.2-0.4,0.2c-0.2,0-0.2,0-0.2-0.2l-0.6-1.4l0,0c0,0,0.2-0.2,0.4-0.2s0.4,0,0.6-0.2
			c0,0,0.2-0.2,0.4-0.4s0.6-0.4,1-0.8c0.4-0.4,1-0.8,1.4-1.2l0,0c-1,0.2-2.1,0.4-3.3,0.6c0,0.2-0.2,0.2-0.4,0.2s-0.4-0.2-0.6-0.8
			l-0.2-0.6c0,0,0-0.2,0.4-0.2c1-0.2,2.3-1.4,3.7-3.7h-3.3c-0.2,0-0.6,0-1.4,0.2l-0.6-0.8h7.7c-0.4-1-1-2.1-2.1-2.7l0.2-0.4
			c1.4,0.4,2.3,0.6,2.9,0.8c0.4,0.2,0.8,0.6,0.8,1s-0.2,0.8-0.6,1.2h3.3c0.6-1,1.2-2.1,1.7-3.1c1.9,0.6,2.9,0.8,2.9,1
			c0,0.2,0,0.2-0.2,0.2c-0.6,0.2-1,0.4-1.2,0.4c-1.2,0.8-1.9,1.4-1.9,1.4l0,0h4.6l1-0.8h0.2c0.2,0,0.2,0,0.2,0l1.9,1.4
			c0,0,0,0,0,0.2c0,0.2,0,0.2-0.2,0.2h-6l0,0c0.8,0.4,1.2,0.6,1.2,0.6s-0.2,0.2-0.4,0.2s-0.4,0.2-0.4,0.2s-0.2,0-0.4,0.2
			s-0.6,0.4-1,0.8c-0.8,0.6-1.7,1.2-2.1,1.4l0,0l3.7-0.2l1.4-1.7l0,0l1.9,1c0,0,0,0,0,0.2l0,0c0,0,0,0-0.2,0l-0.4,0.2
			c-0.2,0-0.4,0.2-1,0.6l-1.4,1C244.9,35,243.9,35.8,242.9,36.4z M232.9,38.7h0.4c0,0.4,0,0.8,0,1.2c0,1-0.2,2.1-0.6,2.7
			c-0.4,0.8-1,1-1.9,1s-1.2-0.2-1.2-0.6v-0.2c0,0,0.2-0.2,0.8-0.6C231.9,41.2,232.7,40.1,232.9,38.7z M244.5,44.1h-1.4h-4.1h-1
			c-1,0-1.7-0.2-1.9-0.4c-0.4-0.2-0.4-0.8-0.4-1.4v-1.7c0-0.8,0-1.7-0.2-2.3c0.4,0,0.8,0.2,1.4,0.4c0.6,0.2,0.8,0.2,1,0.2
			s0.2,0.2,0.2,0.2s-0.2,0.2-0.4,0.2c-0.2,0.2-0.4,0.2-0.4,0.2V42c0,0.2,0,0.2,0.2,0.4s1.2,0.2,3.1,0.2c1.7,0,2.7,0,2.9-0.2
			c0.2,0,0.4-0.6,0.6-1.7l0.4-1.7c0,0,0.2,0,0.6,0c0,1.4,0,2.5,0.2,2.7c0.2,0.2,0.4,0.6,1,0.8C246.2,43.4,245.6,43.9,244.5,44.1z
			 M239.4,38.3l0.2-0.2c2.1,0.8,3.1,1.7,3.1,2.5c0,0.2-0.2,0.6-0.4,0.8c-0.4,0.2-0.6,0.4-0.8,0.4c-0.4,0-0.6-0.2-0.6-0.8
			C240.6,39.7,240.2,38.9,239.4,38.3z M246.2,38.9l0.2-0.2c1.9,0.8,3.1,1.7,3.7,2.1c0.6,0.4,0.8,0.8,0.8,1.2c0,0.4-0.2,0.6-0.4,1
			s-0.6,0.6-0.8,0.6c-0.4,0-0.6-0.2-0.8-0.8c-0.2-0.4-0.4-1-1-1.9C247.6,40.1,247,39.5,246.2,38.9z"/>
		<path d="M256.1,37h8.1c-0.6-1.2-1.2-2.1-2.3-2.7h-2.7c-0.4,0-0.8,0-1.4,0.2l-0.6-0.8h9.1v-1.9h-4.3c-0.4,0-0.8,0-1.4,0.2l-0.6-0.8
			h6.6v-1.7h-5.8c-0.2,0-0.6,0-1.4,0.2l-0.6-0.8h6.2c-0.6-1.2-1.4-2.3-2.5-2.9l0.2-0.4c2.7,0.4,3.9,1,3.9,2.1c0,0.6-0.2,0.8-0.8,1.2
			l0,0h3.1c0.8-1,1.4-2.3,2.1-3.5c1.9,0.6,2.7,1.2,2.7,1.4c0,0.2-0.2,0.2-0.6,0.2s-0.8,0.2-1,0.4c-0.2,0.2-0.8,0.6-1.9,1.2l0,0h3.9
			l1-1h0.2c0.2,0,0.4,0.2,1,0.6c0.6,0.4,1,0.8,1,0.8c0,0.2,0,0.2-0.2,0.2h-8.3V31h3.9l0.8-0.8h0.2c0.2,0,0.4,0.2,1,0.6
			c0.6,0.4,0.8,0.6,0.8,0.8c0,0.2,0,0.2-0.2,0.2h-6.6v1.9h6l1-0.8h0.2c0.2,0,0.4,0.2,1,0.6c0.6,0.4,0.8,0.6,0.8,0.8s0,0.2-0.2,0.2
			h-6.2l0,0c1,0.4,1.7,0.8,1.7,0.8c0,0.2-0.2,0.2-0.4,0.2s-0.6,0.2-1,0.4c-0.4,0.2-1,0.6-1.4,0.8l0,0h4.8l1-1h0.2c0,0,0.4,0.2,1,0.6
			c0.6,0.4,1,0.8,1,0.8c0,0.2,0,0.2-0.2,0.2h-19.5c-0.4,0-1,0-1.9,0.2L256.1,37z M260.9,44.7V42v-2.3v-1.7c0.4,0.2,1,0.4,1.7,0.6
			c0.6,0.2,1,0.4,1,0.4h8.1l0.8-0.8h0.2c0,0,0.4,0.2,1,0.6c0.6,0.4,1,0.6,1,0.6s-0.2,0.2-0.4,0.4c-0.2,0.2-0.4,0.2-0.4,0.4v1.9v2.1
			c0,0.2-0.4,0.4-1,0.6l-0.8,0.2c0,0,0,0-0.2,0c0,0-0.2,0-0.2-0.2v-1.4h-8.5v0.6c0,0.2,0,0.2-0.2,0.4c0,0-0.4,0.2-0.8,0.4
			c-0.4,0.2-0.8,0.2-1,0.2C260.9,44.9,260.9,44.7,260.9,44.7z M263.2,42.6h8.5v-3.1h-8.5V42.6z M265.2,37h3.7
			c0.6-0.8,1.2-1.7,1.9-2.7h-7.7l0,0c1.7,0.4,2.5,0.8,2.5,1.7C265.9,36.2,265.7,36.6,265.2,37z"/>
		<path d="M289.3,29.6h12.4l1.2-1.4c0,0,0,0,0.2,0s0.6,0.2,1.2,0.8c0.8,0.6,1.2,1,1.2,1c0,0.2,0,0.2-0.2,0.2h-13
			c-0.8,0-1.7,0-2.5,0.2l-0.8-0.6c0,0-0.4,0.8-1.2,2.1l1.2,0.4c0,0,0,0,0,0.2s-0.2,0.2-0.4,0.4c-0.2,0-0.4,0.2-0.4,0.2v6.6l0.2,4.1
			c0,0.2-0.2,0.4-0.8,0.6l-1,0.4l0,0h-0.2v-0.2l0.2-1.9v-9.5l0,0c-0.2,0.6-1.4,1.9-3.1,3.5l0,0c0,0-0.2,0-0.2-0.2l-0.2-0.2
			c2.5-3.3,4.3-6.6,5.2-10.4c0-0.2,0.2-0.4,0.2-0.6c0.2,0,0.8,0.2,1.7,0.6l1.2,0.4v0.2c0,0,0,0.2-0.2,0.2s-0.4,0-0.4,0.2
			c0,0-0.2,0.2-0.4,0.6L289.3,29.6L289.3,29.6z M290.7,32.5h8.9l1-1.2l0.2-0.2c0,0,0.4,0.2,1.2,0.8c0.8,0.4,1,0.8,1,1s0,0.2-0.2,0.2
			h-0.2H293c-0.4,0-1.2,0-2.1,0.2L290.7,32.5z M290.9,35.2h8.9l1-1.2c0,0,0,0,0.2,0c0,0,0.6,0.2,1.2,0.8c0.8,0.6,1,0.8,1,0.8
			s0,0.2-0.2,0.2H293l-1.7,0.2L290.9,35.2z M300,44.7v-2.1h-6v1.4c0,0.2-0.2,0.2-0.4,0.4c-0.4,0.2-0.6,0.2-0.8,0.4
			c-0.2,0-0.4,0.2-0.6,0.2s-0.2-0.2-0.2-0.4v-2.3v-3.1v-1.9c0.2,0,0.8,0.2,1.4,0.4l1,0.4h5.6l0.6-0.8c0,0,0,0,0.2,0
			c0,0,0.4,0.2,1.2,0.6c0.8,0.4,1.2,0.6,1.2,0.8s-0.2,0.2-0.4,0.4c-0.4,0.2-0.6,0.2-0.6,0.4v4.3c0,0.4,0,0.6,0,0.6s-0.4,0.2-0.8,0.4
			s-0.8,0.2-1,0.2C300,44.9,300,44.9,300,44.7z M294,42h6v-3.3h-6V42z M294.2,26l0.2-0.2c1.4,0.2,2.5,0.6,2.9,0.8
			c0.6,0.2,0.8,0.6,0.8,1c0,0.4-0.2,0.8-0.4,1.2c-0.2,0.4-0.6,0.6-1,0.6c-0.4,0-0.6-0.2-0.8-0.4C295.7,27.7,295.1,26.7,294.2,26z"/>
		<path d="M309.8,29.6h6.8l1-1.2h0.2c0.2,0,0.4,0.2,1,0.8c0.6,0.4,0.8,0.8,0.8,0.8c0,0.2,0,0.2-0.2,0.2h-7.5c-0.2,0-0.6,0-0.8,0
			c-0.4,0-0.6,0.2-0.8,0.2L309.8,29.6z M311,32.1h5.6l0.8-1h0.2c0.2,0,0.4,0.2,1,0.6c0.6,0.4,0.8,0.6,0.8,0.8s0,0.2-0.2,0.2h-6
			c-0.2,0-0.8,0-1.7,0.2L311,32.1z M311,34.5h5.6l1-1h0.2c0.2,0,0.4,0.2,1,0.6c0.6,0.4,0.8,0.6,0.8,0.8c0,0.2,0,0.2-0.2,0.2h-6
			c-0.2,0-0.8,0-1.7,0.2L311,34.5z M316.8,43.7v-1.2h-3.3v1.4c0,0.2-0.2,0.4-0.8,0.6c-0.4,0.2-0.8,0.2-0.8,0.2c-0.2,0-0.2,0-0.2-0.2
			v-2.9v-2.9l-0.2-2.1c1.2,0.6,1.9,0.8,1.9,0.8h3.1l0.6-0.6h0.2c0,0,0.4,0.2,1,0.4c0.6,0.4,0.8,0.6,0.8,0.6s-0.2,0.2-0.4,0.4
			c-0.2,0.2-0.4,0.4-0.4,0.4v0.8v3.7c0,0.2-0.2,0.6-0.8,0.6l-0.8,0.2l0,0C317,43.9,316.8,43.9,316.8,43.7z M312.5,26.3l0.2-0.2
			c2.3,0.6,3.5,1.2,3.5,2.1c0,0.2-0.2,0.6-0.4,0.8c-0.2,0.2-0.4,0.4-0.8,0.4s-0.6-0.2-0.8-0.8C313.9,27.7,313.3,26.9,312.5,26.3z
			 M313.7,41.8h3.3v-3.9h-3.3V41.8z M325.7,35.8V42c0,0.4,0.2,0.6,0.8,0.6h2.3c0.2,0,0.4-0.2,0.6-0.6s0.4-1.7,0.8-3.9h0.4
			c0,1,0,1.9,0.2,2.5s0.2,1,0.4,1.2c0.2,0.2,0.6,0.4,1,0.6c-0.2,0.4-0.6,0.8-1,1.2c-0.4,0.2-0.8,0.4-1.7,0.4h-2.5
			c-1,0-1.9,0-2.3-0.2c-0.4-0.2-0.6-0.4-0.8-0.6c-0.2-0.2-0.2-0.8-0.2-1.4v-1.7V36l-2.9,0.4c-0.2,0-0.4,0.2-1.2,0.2l-0.6-0.8
			l4.8-0.4v-5.6c-0.8,0.2-2.1,0.2-3.7,0.4V30c4.1-1,7-2.3,8.7-3.3l0,0l1.9,1.4c0.2,0.2,0.2,0.2,0.2,0.4s-0.2,0.2-0.4,0.2
			c-0.2,0-0.4,0-0.6,0c-0.2,0-0.4,0-0.6,0l-3.7,1v5.6l3.1-0.2c0.6-1,1-1.4,1.2-1.4h0.2l2.1,1.4c0,0,0,0,0,0.2s0,0.2-0.2,0.2
			L325.7,35.8z"/>
		<path d="M350.6,36.4h-5c-2.3,2.7-5.2,4.8-8.7,6l-0.2-0.2c3.1-2.1,5.2-3.9,6.4-5.8l0,0h-4.6c-0.2,0-0.6,0-1.2,0.2l-0.6-0.8h5.8v-6
			h-2.7c-0.6,0-1,0-1.4,0.2l-0.6-0.8h4.8c0-0.2,0-0.4,0-0.6c0-0.8,0-1.7-0.2-2.5c0.6,0.2,1.2,0.2,1.9,0.4c0.6,0.2,1,0.2,1,0.4v0.2
			l0,0c0,0-0.2,0.2-0.4,0.2c-0.2,0.2-0.4,0.2-0.4,0.4v1.4h6.2c0-0.2,0-0.4,0-0.6c0-0.8,0-1.7-0.2-2.7c1.7,0.4,2.7,0.6,2.7,0.6
			c0.2,0,0.2,0.2,0.2,0.2s-0.2,0.2-0.4,0.2c-0.2,0.2-0.4,0.2-0.4,0.4v0.2v1.4h1.4l1.2-1.4h0.2c0.2,0,0.6,0.2,1.2,0.8s1,0.8,1,1
			c0,0.2,0,0.2-0.2,0.2h-5v6h2.3l1.2-1.2c0,0,0,0,0.2,0c0,0,0.4,0.2,1.2,0.8c0.8,0.4,1,0.8,1,1c0,0.2,0,0.2-0.2,0.2H351
			c1,0.8,2.1,1.4,3.5,2.1c1.2,0.4,2.3,0.8,3.1,1l1.4,0.2v0.2c-1.2,0.2-2.3,0.6-2.7,1.2C354.1,40.1,352,38.5,350.6,36.4z M339.2,44.3
			l-0.6-0.8h8.5v-2.7H344c-0.6,0-1.2,0-1.7,0.2l-0.6-0.8h5.2v-1.7c0-0.6,0-1.2-0.2-1.7c1.4,0.2,2.3,0.4,2.5,0.6
			c0.2,0,0.4,0.2,0.4,0.4c0,0-0.2,0.2-0.8,0.6v1.9h1.7l1-1h0.2c0.2,0,0.4,0.2,1,0.6c0.6,0.4,0.8,0.6,0.8,0.8c0,0,0,0.2-0.2,0.2
			c-0.2,0-0.2,0-0.2,0h-4.3v2.7h4.8l1-1.2h0.2c0.2,0,0.6,0.2,1.4,0.8c0.8,0.4,1.2,0.8,1.2,1c0,0,0,0.2-0.2,0.2h-16.8
			C340.2,44.1,339.8,44.1,339.2,44.3z M344.6,31.2h6.2v-1.4h-6.2V31.2z M344.6,33.5h6.2v-1.7h-6.2V33.5z M344.6,35.6h6.2v-1.4h-6.2
			V35.6z"/>
		<path d="M365.1,43.9l-0.6-0.8h9.3v-0.2v-5h-5.6c-0.2,0-0.6,0-1.4,0.2l-0.4-0.8h7.7v-2.9h-3.1c-0.4,0-0.8,0-1.4,0.2l-0.4-0.6
			c-2.1,1.2-3.7,2.1-5,2.3l-0.2-0.2l3.1-2.1c1-0.6,2.3-1.9,3.5-3.1c1.2-1.4,2.5-3.1,3.3-5c1.9,0.6,2.7,1,2.7,1.2c0,0,0,0.2-0.2,0.2
			s-0.4,0.2-0.4,0.2c2.7,2.9,6.4,5,11,5.8v0.4c-1.2,0-2.3,0.4-2.9,1.2c-3.9-1.7-6.6-3.9-8.5-7l0,0c-1.9,2.3-3.9,4.1-6,5.6l0,0h8.1
			l1-1h0.2h0.2l2.1,1.2v0.2c0,0,0,0.2-0.2,0.2h-4.8V37h4.3l1-1.2h0.2c0,0,0.4,0.2,1.2,0.8c0.6,0.6,1,0.8,1,0.8c0,0.2,0,0.2-0.2,0.2
			h-7.7v5h1.4c0.4-0.8,1.2-2.3,2.3-4.6c0.2,0,0.6,0.2,1.4,0.6c0.6,0.4,1,0.6,1,0.6s0,0,0,0.2c0,0-0.4,0.2-0.6,0.2
			c-0.4,0.2-0.6,0.4-1,0.8c-0.4,0.4-1,1-2.1,1.9h3.7l1-1.2c0,0,0,0,0.2,0c0,0,0.4,0.2,0.6,0.4l1,0.8c0.4,0.2,0.6,0.4,0.6,0.4
			c0,0.2,0,0.2-0.2,0.2h-18.2C366.5,43.7,365.9,43.7,365.1,43.9z M368.4,38.7l0.2-0.2c1.4,0.6,2.5,1.2,2.9,1.4
			c0.4,0.4,0.6,0.8,0.6,1c0,0.4-0.2,0.6-0.6,1c-0.4,0.4-0.6,0.6-1,0.6c-0.4,0-0.6-0.4-0.6-1C369.8,40.5,369.2,39.5,368.4,38.7z"/>
	</g>
</g>
</svg>
