<svg xmlns="http://www.w3.org/2000/svg" viewBox="0 0 1569.07 855.67"><defs><style>.cls-1{fill:#20e2a1;}</style></defs><g id="Layer_2" data-name="Layer 2"><g id="Layer_1-2" data-name="Layer 1"><path class="cls-1" d="M.26,602.05C-3.33,499.14,29.9,306,118.6,238.6c31.26-23.76,72.26-30.29,111.51-31.53,54-1.71,113.24-5.22,169.2-1.68,59.06,3.73,116.84,18.15,176.4,14.74C716.51,212.07,782.94,70,907.36,26.78c94.89-33,200-35.31,296.59-8C1352.22,60.6,1455.44,198.34,1523.58,330c31.58,61,51.28,130,44,198.31-7.51,70.12-51.24,109.19-106.89,147.35-73.65,50.49-154.34,97.16-245.05,105.56-39.34,3.65-78.31-1-117.37-5.5-163.69-18.75-303.9,19.05-459.5,59.1-94.65,24.36-192.69,26.28-289,11.7C251.5,831.61,94.3,817.1,34.47,724.81,11.8,689.84,1.84,647.31.26,602.05Z"/></g></g></svg>