<svg xmlns="http://www.w3.org/2000/svg" viewBox="0 0 962 908"><defs><style>.cls-1{fill:#fff;stroke:#000;stroke-linecap:round;stroke-linejoin:round;opacity:0.18;}.cls-1,.cls-2{stroke-width:8px;}.cls-2{fill:none;stroke:#f78900;stroke-miterlimit:10;}</style></defs><title>m</title><g id="Layer_2" data-name="Layer 2"><path class="cls-1" d="M258,384.26l18.17-12.61v-16l7-18.91,2.27,5.25,1.45-23.54s-2.7-5.8-.7-10.8,7-34,7-34l6,24-.39,30.68,6.23.47-.84-66.15,4-20,7,21,7-6,13,29,2.09,3.93-.5,37.55,3.41,5.52,1-27,7-24,6,21-1.35,28.06,2.35-10.06,8.4,23.81-3.4,17.19L373.43,366l5.78-13.33L386,368.26l2.21-21.61,11,26,16.34,16.12,9.66-3.12-1-28,41-22.43,55,30.43v4l-5.72,3.9.72,9.1,11-4,2-7,55-31,54,31,.13,51.45s106.87-10.44,163.37,52.56c0,0,14.5,11-23.5,22s-14,31-14,31-21,21-2,33l-1,12s-16,1-15,11-16.47,53.24-16.47,53.24-18-24-34.28-25.14-70,30-80.11,30.94-87.06,43.47-152.1,6.72-85-32.76-85-32.76l-34-15s-22-10-64-11-49-50-46-69c0,0-33.86,13.42-49.43-25.29s-2.57,1.29-2.57,1.29-5.56-27.7-20.28-29.85,43.65,1.64,61-12.75,21.57-17.78,14.44-34.09,1.88-10.31-6.12-11.31S258,384.26,258,384.26Z"/><path class="cls-2" d="M258,384.26l18.17-12.61v-16l7-18.91,2.27,5.25,1.45-23.54s-2.7-5.8-.7-10.8,7-34,7-34l6,24-.39,30.68,6.23.47-.84-66.15,4-20,7,21,7-6,13,29,2.09,3.93-.5,37.55,3.41,5.52,1-27,7-24,6,21-1.35,28.06,2.35-10.06,8.4,23.81-3.4,17.19L373.43,366l5.78-13.33L386,368.26l2.21-21.61,11,26,16.34,16.12,9.66-3.12-1-28,41-22.43,55,30.43v4l-5.72,3.9.72,9.1,11-4,2-7,55-31,54,31,.13,51.45s106.87-10.44,163.37,52.56c0,0,14.5,11-23.5,22s-14,31-14,31-21,21-2,33l-1,12s-16,1-15,11-16.47,53.24-16.47,53.24-18-24-34.28-25.14-70,30-80.11,30.94-87.06,43.47-152.1,6.72-85-32.76-85-32.76l-34-15s-22-10-64-11-49-50-46-69c0,0-33.86,13.42-49.43-25.29s-2.57,1.29-2.57,1.29-5.56-27.7-20.28-29.85,43.65,1.64,61-12.75,21.57-17.78,14.44-34.09,1.88-10.31-6.12-11.31S258,384.26,258,384.26Z"/></g></svg>