<?xml version="1.0" encoding="utf-8"?>
<!-- Generator: Adobe Illustrator 15.1.0, SVG Export Plug-In . SVG Version: 6.00 Build 0)  -->
<!DOCTYPE svg PUBLIC "-//W3C//DTD SVG 1.1//EN" "http://www.w3.org/Graphics/SVG/1.1/DTD/svg11.dtd">
<svg version="1.1" id="Layer_1" xmlns="http://www.w3.org/2000/svg" xmlns:xlink="http://www.w3.org/1999/xlink" x="0px" y="0px"
	 width="455px" height="455px" viewBox="0 0 455 455" enable-background="new 0 0 455 455" xml:space="preserve">
<g>
	<g>
		<path fill="#969696" d="M455,229h-17v-3h17V229z M421,229h-17v-3h17V229z M387,229h-17v-3h17V229z M354,229h-17v-3h17V229z
			 M320,229h-17v-3h17V229z M286,229h-17v-3h17V229z M253,229h-17v-3h17V229z M219,229h-17v-3h17V229z M185,229h-17v-3h17V229z
			 M152,229h-17v-3h17V229z M118,229h-17v-3h17V229z M84,229H67v-3h17V229z M51,229H34v-3h17V229z M17,229H0v-3h17V229z"/>
	</g>
	<g>
		<path fill="#969696" d="M230,455h-3v-17h3V455z M230,421h-3v-17h3V421z M230,388h-3v-17h3V388z M230,354h-3v-17h3V354z M230,320
			h-3v-17h3V320z M230,287h-3v-17h3V287z M230,253h-3v-17h3V253z M230,219h-3v-17h3V219z M230,186h-3v-17h3V186z M230,152h-3v-17h3
			V152z M230,118h-3v-17h3V118z M230,85h-3V68h3V85z M230,51h-3V34h3V51z M230,17h-3V0h3V17z"/>
	</g>
</g>
</svg>
