<svg xmlns="http://www.w3.org/2000/svg" viewBox="0 0 961.01 906.91"><defs><style>.cls-1,.cls-2,.cls-3{font-size:95.98px;}.cls-1,.cls-2,.cls-6,.cls-7{fill:#f7931e;}.cls-1,.cls-6{stroke:#333;}.cls-1,.cls-2,.cls-4,.cls-6,.cls-7{stroke-linecap:round;stroke-linejoin:round;}.cls-1{stroke-width:23px;}.cls-1,.cls-2,.cls-3,.cls-6,.cls-7,.cls-8{font-family:DFHaiBaoW12-UB-HKP-BF, DFPHaiBaoW12-B5;}.cls-2,.cls-7{stroke:#fff;}.cls-2{stroke-width:10px;}.cls-3,.cls-8{fill:#f78900;}.cls-4{fill:#fff;stroke:#000;opacity:0.18;}.cls-4,.cls-5{stroke-width:8px;}.cls-5{fill:none;stroke:#f78900;stroke-miterlimit:10;}.cls-6,.cls-7,.cls-8{font-size:146.05px;}.cls-6{stroke-width:34.99px;}.cls-7{stroke-width:15.21px;}</style></defs><title>In Game target</title><g id="Layer_1" data-name="Layer 1"><text class="cls-1" transform="translate(356.54 199.84)">魔法街</text><text class="cls-2" transform="translate(356.54 199.84)">魔法街</text><text class="cls-3" transform="translate(356.54 199.84)">魔法街</text></g><g id="Layer_2" data-name="Layer 2"><path class="cls-4" d="M260.09,503.09l18.17-12.61v-16l7-18.91,2.27,5.25L289,437.28s-2.7-5.8-.7-10.8,7-34,7-34l6,24-.38,30.68,6.22.47-.84-66.15,4-20,7,21,7-6,13,29,2.09,3.93-.5,37.55,3.41,5.52,1-27,7-24,6,21-1.34,28,2.34-10,8.41,23.81-3.41,17.19,13.22,3.33,5.78-13.33,6.79,15.61,2.21-21.61,11,26L417.6,507.6l9.66-3.12-1-28,41-22.43,55,30.43v4l-5.72,3.9.72,9.1,11-4,2-7,55-31,54,31,.13,51.45s106.88-10.44,163.37,52.56c0,0,14.5,11-23.5,22s-14,31-14,31-21,21-2,33l-1,12s-16,1-15,11-16.47,53.24-16.47,53.24-18-24-34.28-25.14-70,30-80.1,30.94S529.34,806,464.3,769.24s-85-32.76-85-32.76l-34-15s-22-10-64-11-49-50-46-69c0,0-33.86,13.42-49.43-25.29s-2.57,1.29-2.57,1.29-5.56-27.7-20.28-29.85,43.65,1.64,61-12.75,21.56-17.78,14.44-34.09,1.87-10.31-6.13-11.31S260.09,503.09,260.09,503.09Z"/><path class="cls-5" d="M260.09,503.09l18.17-12.61v-16l7-18.91,2.27,5.25L289,437.28s-2.7-5.8-.7-10.8,7-34,7-34l6,24-.38,30.68,6.22.47-.84-66.15,4-20,7,21,7-6,13,29,2.09,3.93-.5,37.55,3.41,5.52,1-27,7-24,6,21-1.34,28,2.34-10,8.41,23.81-3.41,17.19,13.22,3.33,5.78-13.33,6.79,15.61,2.21-21.61,11,26L417.6,507.6l9.66-3.12-1-28,41-22.43,55,30.43v4l-5.72,3.9.72,9.1,11-4,2-7,55-31,54,31,.13,51.45s106.88-10.44,163.37,52.56c0,0,14.5,11-23.5,22s-14,31-14,31-21,21-2,33l-1,12s-16,1-15,11-16.47,53.24-16.47,53.24-18-24-34.28-25.14-70,30-80.1,30.94S529.34,806,464.3,769.24s-85-32.76-85-32.76l-34-15s-22-10-64-11-49-50-46-69c0,0-33.86,13.42-49.43-25.29s-2.57,1.29-2.57,1.29-5.56-27.7-20.28-29.85,43.65,1.64,61-12.75,21.56-17.78,14.44-34.09,1.87-10.31-6.13-11.31S260.09,503.09,260.09,503.09Z"/><text class="cls-6" transform="translate(280.15 647.52)">魔法街</text><text class="cls-7" transform="translate(280.15 647.52)">魔法街</text><text class="cls-8" transform="translate(280.15 647.52)">魔法街</text></g></svg>